<svg xmlns="http://www.w3.org/2000/svg" xmlns:xlink="http://www.w3.org/1999/xlink" width="500" zoomAndPan="magnify" viewBox="0 0 375 374.999991" height="500" preserveAspectRatio="xMidYMid meet" version="1.0"><defs><g/></defs><g fill="#ffffff" fill-opacity="1"><g transform="translate(238.450345, 239.873805)"><g><path d="M 29.015625 -83.390625 L 45.765625 -83.390625 L 13.078125 9.90625 L -3.671875 9.90625 Z M 29.015625 -83.390625 "/></g></g></g><g fill="#ffffff" fill-opacity="1"><g transform="translate(279.535841, 239.873805)"><g><path d="M 54.578125 -42.296875 L 54.578125 -27.046875 L 5.75 -9.015625 L 5.75 -23.46875 L 37.34375 -34.671875 L 5.75 -45.859375 L 5.75 -60.3125 Z M 54.578125 -42.296875 "/></g></g></g><g fill="#ffffff" fill-opacity="1"><g transform="translate(48.388911, 245.107172)"><g><path d="M 57.71875 -48.5 L 24.296875 -36.65625 L 57.71875 -24.828125 L 57.71875 -9.53125 L 6.078125 -28.59375 L 6.078125 -44.734375 L 57.71875 -63.796875 Z M 57.71875 -48.5 "/></g></g></g><g fill="#fba94c" fill-opacity="1"><g transform="translate(112.157383, 242.013465)"><g><path d="M 10.703125 -107.03125 L 61.3125 -107.03125 C 73.039062 -107.03125 83.4375 -104.835938 92.5 -100.453125 C 101.570312 -96.078125 108.609375 -89.859375 113.609375 -81.796875 C 118.609375 -73.742188 121.109375 -64.316406 121.109375 -53.515625 C 121.109375 -42.710938 118.609375 -33.285156 113.609375 -25.234375 C 108.609375 -17.179688 101.570312 -10.960938 92.5 -6.578125 C 83.4375 -2.191406 73.039062 0 61.3125 0 L 10.703125 0 Z M 60.09375 -24.15625 C 69.269531 -24.15625 76.632812 -26.753906 82.1875 -31.953125 C 87.738281 -37.148438 90.515625 -44.335938 90.515625 -53.515625 C 90.515625 -62.691406 87.738281 -69.878906 82.1875 -75.078125 C 76.632812 -80.273438 69.269531 -82.875 60.09375 -82.875 L 40.984375 -82.875 L 40.984375 -24.15625 Z M 60.09375 -24.15625 "/></g></g></g></svg>