<svg xmlns="http://www.w3.org/2000/svg" xmlns:xlink="http://www.w3.org/1999/xlink" width="500" zoomAndPan="magnify" viewBox="0 0 375 374.999991" height="500" preserveAspectRatio="xMidYMid meet" version="1.0"><defs><g/></defs><g fill="#7c7c8a" fill-opacity="1"><g transform="translate(243.292153, 238.999693)"><g><path d="M 37.234375 -106.984375 L 58.703125 -106.984375 L 16.765625 12.703125 L -4.703125 12.703125 Z M 37.234375 -106.984375 "/></g></g></g><g fill="#7c7c8a" fill-opacity="1"><g transform="translate(296.019818, 238.999693)"><g><path d="M 70.015625 -54.25 L 70.015625 -34.6875 L 7.375 -11.5625 L 7.375 -30.109375 L 47.90625 -44.46875 L 7.375 -58.828125 L 7.375 -77.375 Z M 70.015625 -54.25 "/></g></g></g><g fill="#7c7c8a" fill-opacity="1"><g transform="translate(-0.531408, 245.76829)"><g><path d="M 74.046875 -62.21875 L 31.171875 -47.03125 L 74.046875 -31.84375 L 74.046875 -12.234375 L 7.796875 -36.6875 L 7.796875 -57.375 L 74.046875 -81.828125 Z M 74.046875 -62.21875 "/></g></g></g><g fill="#fba94c" fill-opacity="1"><g transform="translate(81.306218, 236.821855)"><g><path d="M 13.734375 -137.28125 L 78.640625 -137.28125 C 93.679688 -137.28125 107.019531 -134.46875 118.65625 -128.84375 C 130.289062 -123.226562 139.3125 -115.253906 145.71875 -104.921875 C 152.125 -94.597656 155.328125 -82.503906 155.328125 -68.640625 C 155.328125 -54.785156 152.125 -42.691406 145.71875 -32.359375 C 139.3125 -22.023438 130.289062 -14.046875 118.65625 -8.421875 C 107.019531 -2.804688 93.679688 0 78.640625 0 L 13.734375 0 Z M 77.078125 -30.984375 C 88.847656 -30.984375 98.296875 -34.316406 105.421875 -40.984375 C 112.546875 -47.660156 116.109375 -56.878906 116.109375 -68.640625 C 116.109375 -80.410156 112.546875 -89.628906 105.421875 -96.296875 C 98.296875 -102.960938 88.847656 -106.296875 77.078125 -106.296875 L 52.5625 -106.296875 L 52.5625 -30.984375 Z M 77.078125 -30.984375 "/></g></g></g></svg>