<svg xmlns="http://www.w3.org/2000/svg" xmlns:xlink="http://www.w3.org/1999/xlink" width="200" zoomAndPan="magnify" viewBox="0 0 150 37.5" height="50" preserveAspectRatio="xMidYMid meet" version="1.0"><defs><g/></defs><g fill="#ffffff" fill-opacity="1"><g transform="translate(132.124174, 26.207632)"><g><path d="M 3.6875 -10.609375 L 5.8125 -10.609375 L 1.65625 1.265625 L -0.46875 1.265625 Z M 3.6875 -10.609375 "/></g></g></g><g fill="#ffffff" fill-opacity="1"><g transform="translate(137.349884, 26.207632)"><g><path d="M 6.9375 -5.375 L 6.9375 -3.4375 L 0.734375 -1.140625 L 0.734375 -2.984375 L 4.75 -4.40625 L 0.734375 -5.828125 L 0.734375 -7.671875 Z M 6.9375 -5.375 "/></g></g></g><g fill="#ffffff" fill-opacity="1"><g transform="translate(2.35562, 26.207632)"><g><path d="M 6.9375 -5.828125 L 2.921875 -4.40625 L 6.9375 -2.984375 L 6.9375 -1.140625 L 0.734375 -3.4375 L 0.734375 -5.375 L 6.9375 -7.671875 Z M 6.9375 -5.828125 "/></g></g></g><g fill="#fba94c" fill-opacity="1"><g transform="translate(11.924235, 26.363648)"><g><path d="M 1.53125 -15.34375 L 8.796875 -15.34375 C 10.472656 -15.34375 11.960938 -15.023438 13.265625 -14.390625 C 14.566406 -13.765625 15.570312 -12.875 16.28125 -11.71875 C 17 -10.570312 17.359375 -9.222656 17.359375 -7.671875 C 17.359375 -6.117188 17 -4.765625 16.28125 -3.609375 C 15.570312 -2.460938 14.566406 -1.570312 13.265625 -0.9375 C 11.960938 -0.3125 10.472656 0 8.796875 0 L 1.53125 0 Z M 8.609375 -3.46875 C 9.929688 -3.46875 10.988281 -3.835938 11.78125 -4.578125 C 12.582031 -5.328125 12.984375 -6.359375 12.984375 -7.671875 C 12.984375 -8.984375 12.582031 -10.007812 11.78125 -10.75 C 10.988281 -11.5 9.929688 -11.875 8.609375 -11.875 L 5.875 -11.875 L 5.875 -3.46875 Z M 8.609375 -3.46875 "/></g></g></g><g fill="#fba94c" fill-opacity="1"><g transform="translate(30.035323, 26.363648)"><g><path d="M 7.296875 0.203125 C 6.023438 0.203125 4.878906 -0.0546875 3.859375 -0.578125 C 2.835938 -1.109375 2.035156 -1.84375 1.453125 -2.78125 C 0.878906 -3.71875 0.59375 -4.78125 0.59375 -5.96875 C 0.59375 -7.132812 0.878906 -8.179688 1.453125 -9.109375 C 2.035156 -10.046875 2.832031 -10.773438 3.84375 -11.296875 C 4.863281 -11.816406 6.015625 -12.078125 7.296875 -12.078125 C 8.585938 -12.078125 9.742188 -11.816406 10.765625 -11.296875 C 11.785156 -10.773438 12.582031 -10.050781 13.15625 -9.125 C 13.726562 -8.195312 14.015625 -7.144531 14.015625 -5.96875 C 14.015625 -4.78125 13.726562 -3.71875 13.15625 -2.78125 C 12.582031 -1.84375 11.785156 -1.109375 10.765625 -0.578125 C 9.742188 -0.0546875 8.585938 0.203125 7.296875 0.203125 Z M 7.296875 -3.109375 C 8.023438 -3.109375 8.625 -3.359375 9.09375 -3.859375 C 9.5625 -4.367188 9.796875 -5.070312 9.796875 -5.96875 C 9.796875 -6.84375 9.5625 -7.523438 9.09375 -8.015625 C 8.625 -8.515625 8.023438 -8.765625 7.296875 -8.765625 C 6.566406 -8.765625 5.96875 -8.515625 5.5 -8.015625 C 5.03125 -7.523438 4.796875 -6.84375 4.796875 -5.96875 C 4.796875 -5.070312 5.03125 -4.367188 5.5 -3.859375 C 5.96875 -3.359375 6.566406 -3.109375 7.296875 -3.109375 Z M 7.296875 -3.109375 "/></g></g></g><g fill="#fba94c" fill-opacity="1"><g transform="translate(44.638211, 26.363648)"><g><path d="M 1.34375 -11.875 L 5.5 -11.875 L 5.5 0 L 1.34375 0 Z M 3.421875 -13.203125 C 2.660156 -13.203125 2.046875 -13.410156 1.578125 -13.828125 C 1.109375 -14.253906 0.875 -14.78125 0.875 -15.40625 C 0.875 -16.039062 1.109375 -16.566406 1.578125 -16.984375 C 2.046875 -17.410156 2.660156 -17.625 3.421875 -17.625 C 4.179688 -17.625 4.796875 -17.421875 5.265625 -17.015625 C 5.734375 -16.617188 5.96875 -16.109375 5.96875 -15.484375 C 5.96875 -14.816406 5.734375 -14.269531 5.265625 -13.84375 C 4.796875 -13.414062 4.179688 -13.203125 3.421875 -13.203125 Z M 3.421875 -13.203125 "/></g></g></g><g fill="#fba94c" fill-opacity="1"><g transform="translate(51.501127, 26.363648)"><g><path d="M 9.078125 -12.078125 C 10.554688 -12.078125 11.742188 -11.640625 12.640625 -10.765625 C 13.535156 -9.890625 13.984375 -8.566406 13.984375 -6.796875 L 13.984375 0 L 9.828125 0 L 9.828125 -6.109375 C 9.828125 -7.734375 9.175781 -8.546875 7.875 -8.546875 C 7.15625 -8.546875 6.578125 -8.3125 6.140625 -7.84375 C 5.710938 -7.375 5.5 -6.675781 5.5 -5.75 L 5.5 0 L 1.34375 0 L 1.34375 -11.875 L 5.3125 -11.875 L 5.3125 -10.59375 C 5.769531 -11.070312 6.320312 -11.4375 6.96875 -11.6875 C 7.613281 -11.945312 8.316406 -12.078125 9.078125 -12.078125 Z M 9.078125 -12.078125 "/></g></g></g><g fill="#fba94c" fill-opacity="1"><g transform="translate(66.761801, 26.363648)"><g><path d="M 14.125 -11.875 L 14.125 -2.171875 C 14.125 0.0351562 13.519531 1.691406 12.3125 2.796875 C 11.113281 3.898438 9.390625 4.453125 7.140625 4.453125 C 5.972656 4.453125 4.878906 4.316406 3.859375 4.046875 C 2.835938 3.785156 1.96875 3.398438 1.25 2.890625 L 2.765625 -0.015625 C 3.242188 0.367188 3.851562 0.675781 4.59375 0.90625 C 5.332031 1.132812 6.0625 1.25 6.78125 1.25 C 7.875 1.25 8.675781 1.003906 9.1875 0.515625 C 9.695312 0.0351562 9.953125 -0.675781 9.953125 -1.625 L 9.953125 -2.015625 C 9.148438 -1.078125 7.972656 -0.609375 6.421875 -0.609375 C 5.367188 -0.609375 4.394531 -0.84375 3.5 -1.3125 C 2.613281 -1.789062 1.90625 -2.460938 1.375 -3.328125 C 0.851562 -4.203125 0.59375 -5.210938 0.59375 -6.359375 C 0.59375 -7.484375 0.851562 -8.476562 1.375 -9.34375 C 1.90625 -10.21875 2.613281 -10.890625 3.5 -11.359375 C 4.394531 -11.835938 5.367188 -12.078125 6.421875 -12.078125 C 8.117188 -12.078125 9.363281 -11.53125 10.15625 -10.4375 L 10.15625 -11.875 Z M 7.40625 -3.921875 C 8.15625 -3.921875 8.773438 -4.144531 9.265625 -4.59375 C 9.753906 -5.050781 10 -5.640625 10 -6.359375 C 10 -7.078125 9.753906 -7.65625 9.265625 -8.09375 C 8.785156 -8.539062 8.164062 -8.765625 7.40625 -8.765625 C 6.644531 -8.765625 6.019531 -8.539062 5.53125 -8.09375 C 5.039062 -7.65625 4.796875 -7.078125 4.796875 -6.359375 C 4.796875 -5.640625 5.046875 -5.050781 5.546875 -4.59375 C 6.046875 -4.144531 6.664062 -3.921875 7.40625 -3.921875 Z M 7.40625 -3.921875 "/></g></g></g><g fill="#ffffff" fill-opacity="1"><g transform="translate(82.214978, 26.363648)"><g><path d="M 3.09375 0.203125 C 2.382812 0.203125 1.789062 -0.03125 1.3125 -0.5 C 0.832031 -0.96875 0.59375 -1.5625 0.59375 -2.28125 C 0.59375 -3.007812 0.828125 -3.597656 1.296875 -4.046875 C 1.773438 -4.503906 2.375 -4.734375 3.09375 -4.734375 C 3.820312 -4.734375 4.421875 -4.503906 4.890625 -4.046875 C 5.359375 -3.597656 5.59375 -3.007812 5.59375 -2.28125 C 5.59375 -1.5625 5.351562 -0.96875 4.875 -0.5 C 4.40625 -0.03125 3.8125 0.203125 3.09375 0.203125 Z M 3.09375 0.203125 "/></g></g></g><g fill="#ffffff" fill-opacity="1"><g transform="translate(88.420107, 26.363648)"><g><path d="M 13.96875 -16.265625 L 13.96875 0 L 10 0 L 10 -1.1875 C 9.21875 -0.257812 8.054688 0.203125 6.515625 0.203125 C 5.429688 0.203125 4.441406 -0.046875 3.546875 -0.546875 C 2.660156 -1.054688 1.957031 -1.78125 1.4375 -2.71875 C 0.914062 -3.65625 0.65625 -4.738281 0.65625 -5.96875 C 0.65625 -7.1875 0.914062 -8.257812 1.4375 -9.1875 C 1.957031 -10.125 2.660156 -10.835938 3.546875 -11.328125 C 4.441406 -11.828125 5.429688 -12.078125 6.515625 -12.078125 C 7.929688 -12.078125 9.023438 -11.664062 9.796875 -10.84375 L 9.796875 -16.265625 Z M 7.390625 -3.109375 C 8.109375 -3.109375 8.695312 -3.359375 9.15625 -3.859375 C 9.625 -4.367188 9.859375 -5.070312 9.859375 -5.96875 C 9.859375 -6.84375 9.628906 -7.523438 9.171875 -8.015625 C 8.710938 -8.515625 8.117188 -8.765625 7.390625 -8.765625 C 6.660156 -8.765625 6.0625 -8.515625 5.59375 -8.015625 C 5.125 -7.523438 4.890625 -6.84375 4.890625 -5.96875 C 4.890625 -5.070312 5.125 -4.367188 5.59375 -3.859375 C 6.0625 -3.359375 6.660156 -3.109375 7.390625 -3.109375 Z M 7.390625 -3.109375 "/></g></g></g><g fill="#ffffff" fill-opacity="1"><g transform="translate(103.724635, 26.363648)"><g><path d="M 13.484375 -5.921875 C 13.484375 -5.890625 13.460938 -5.546875 13.421875 -4.890625 L 4.78125 -4.890625 C 4.957031 -4.273438 5.296875 -3.800781 5.796875 -3.46875 C 6.296875 -3.144531 6.925781 -2.984375 7.6875 -2.984375 C 8.257812 -2.984375 8.753906 -3.0625 9.171875 -3.21875 C 9.585938 -3.382812 10.007812 -3.648438 10.4375 -4.015625 L 12.625 -1.734375 C 11.46875 -0.441406 9.78125 0.203125 7.5625 0.203125 C 6.175781 0.203125 4.957031 -0.0546875 3.90625 -0.578125 C 2.851562 -1.109375 2.035156 -1.84375 1.453125 -2.78125 C 0.878906 -3.71875 0.59375 -4.78125 0.59375 -5.96875 C 0.59375 -7.132812 0.875 -8.179688 1.4375 -9.109375 C 2 -10.035156 2.773438 -10.757812 3.765625 -11.28125 C 4.765625 -11.8125 5.882812 -12.078125 7.125 -12.078125 C 8.3125 -12.078125 9.382812 -11.832031 10.34375 -11.34375 C 11.3125 -10.851562 12.078125 -10.144531 12.640625 -9.21875 C 13.203125 -8.289062 13.484375 -7.191406 13.484375 -5.921875 Z M 7.140625 -9.125 C 6.503906 -9.125 5.96875 -8.9375 5.53125 -8.5625 C 5.101562 -8.195312 4.832031 -7.703125 4.71875 -7.078125 L 9.578125 -7.078125 C 9.460938 -7.703125 9.1875 -8.195312 8.75 -8.5625 C 8.320312 -8.9375 7.785156 -9.125 7.140625 -9.125 Z M 7.140625 -9.125 "/></g></g></g><g fill="#ffffff" fill-opacity="1"><g transform="translate(117.801291, 26.363648)"><g><path d="M 13.859375 -11.875 L 8.9375 0 L 4.640625 0 L -0.234375 -11.875 L 4.03125 -11.875 L 6.890625 -4.625 L 9.890625 -11.875 Z M 13.859375 -11.875 "/></g></g></g></svg>